<?xml version="1.0" encoding="utf-8"?>
<!-- Generator: Adobe Illustrator 16.0.0, SVG Export Plug-In . SVG Version: 6.00 Build 0)  -->
<!DOCTYPE svg PUBLIC "-//W3C//DTD SVG 1.1//EN" "http://www.w3.org/Graphics/SVG/1.1/DTD/svg11.dtd">
<svg version="1.1" id="Layer_1" xmlns="http://www.w3.org/2000/svg" xmlns:xlink="http://www.w3.org/1999/xlink" x="0px" y="0px"
	 width="302.033px" height="62.164px" viewBox="0 0 302.033 62.164" enable-background="new 0 0 302.033 62.164"
	 xml:space="preserve">
<g>
	<polygon points="3.514,56.506 3.514,6.214 51.381,6.214 51.381,13.064 11.935,13.064 11.935,29.526 34.44,29.526 34.44,36.238 
		11.935,36.238 11.935,56.506 	"/>
	<path d="M12.593,57.163H2.857V5.557h49.182v8.164H12.593v15.148h22.505v8.027H12.593V57.163z M4.172,55.849h7.106V35.581h22.505
		v-5.398H11.278V12.406h39.445V6.871H4.172V55.849z"/>
	<rect x="65.61" y="6.214" width="8.421" height="50.292"/>
	<path d="M74.688,57.163h-9.736V5.556h9.736V57.163z M66.268,55.849h7.106V6.871h-7.106V55.849z"/>
	<path d="M100.101,56.507V6.213h40.539c3.775,0,6.496,0.769,8.162,2.306c1.665,1.542,2.499,4.023,2.499,7.448v5.85
		c0,2.699-0.676,4.715-2.025,6.047c-1.345,1.333-3.463,2.17-6.35,2.52c2.823,0.35,4.971,1.358,6.448,3.023
		c1.474,1.666,2.213,3.941,2.213,6.824v6.427c0,3.331-1.153,5.805-3.45,7.422c-2.302,1.619-5.799,2.427-10.494,2.427H100.101z
		 M142.687,22.39v-5.042c0-1.649-0.355-2.789-1.068-3.426c-0.717-0.636-2.071-0.952-4.069-0.952h-29.026v13.896h29.026
		c1.934,0,3.275-0.333,4.018-0.999C142.314,25.2,142.687,24.042,142.687,22.39 M143.113,43.66v-4.188
		c0-2.286-0.402-3.861-1.213-4.733c-0.807-0.875-2.259-1.31-4.351-1.31h-29.026v16.175h29.026c2.122,0,3.583-0.426,4.377-1.28
		C142.72,47.467,143.113,45.911,143.113,43.66"/>
	<path d="M137.643,57.164H99.445V5.557h41.196c3.929,0,6.824,0.837,8.604,2.481c1.798,1.665,2.712,4.334,2.712,7.93v5.85
		c0,2.869-0.747,5.06-2.221,6.513c-0.918,0.909-2.174,1.609-3.745,2.092c1.571,0.568,2.869,1.418,3.873,2.549
		c1.576,1.785,2.38,4.229,2.38,7.26v6.428c0,3.535-1.257,6.214-3.733,7.96C146.111,56.305,142.456,57.164,137.643,57.164
		 M100.76,55.849h36.883c4.535,0,7.939-0.772,10.117-2.307c2.131-1.502,3.168-3.753,3.168-6.883v-6.428
		c0-2.702-0.688-4.855-2.045-6.389c-1.363-1.537-3.395-2.481-6.038-2.809l-5.305-0.658l5.308-0.641
		c2.729-0.333,4.736-1.118,5.966-2.336c1.213-1.2,1.828-3.079,1.828-5.581v-5.85c0-3.216-0.769-5.56-2.285-6.966
		c-1.532-1.413-4.129-2.13-7.716-2.13H100.76V55.849z M137.549,50.263h-29.683V32.771h29.683c2.31,0,3.89,0.499,4.834,1.524
		c0.931,0.999,1.388,2.695,1.388,5.176v4.189c0,2.446-0.448,4.116-1.362,5.106C141.473,49.771,139.885,50.263,137.549,50.263
		 M109.181,48.948h28.368c1.926,0,3.237-0.359,3.899-1.073c0.671-0.721,1.008-2.144,1.008-4.214v-4.189
		c0-2.104-0.346-3.545-1.034-4.283c-0.675-0.733-1.977-1.103-3.873-1.103h-28.368V48.948z M137.549,27.523h-29.683V12.312h29.683
		c2.182,0,3.655,0.367,4.506,1.119c0.866,0.773,1.289,2.054,1.289,3.916v5.043c0,1.866-0.44,3.165-1.341,3.967
		C141.128,27.139,139.671,27.523,137.549,27.523 M109.181,26.208h28.368c1.734,0,2.972-0.286,3.579-0.829
		c0.602-0.533,0.901-1.541,0.901-2.989v-5.043c0-1.448-0.282-2.434-0.846-2.934c-0.405-0.358-1.362-0.786-3.634-0.786h-28.368
		V26.208z"/>
	<polygon points="174.757,56.506 174.757,6.214 223.194,6.214 223.194,12.969 183.178,12.969 183.178,26.959 216.38,26.959 
		216.38,33.621 183.178,33.621 183.178,49.605 223.575,49.605 223.575,56.506 	"/>
	<path d="M224.233,57.163h-50.135V5.557h49.755v8.07h-40.019v12.675h33.203v7.978h-33.203v14.669h40.398V57.163z M175.414,55.849
		h47.504v-5.586h-40.397v-17.3h33.202v-5.346h-33.202V12.312h40.018V6.871h-47.124V55.849z"/>
	<polygon points="243.557,56.506 243.557,6.214 291.995,6.214 291.995,12.969 251.978,12.969 251.978,26.959 285.181,26.959 
		285.181,33.621 251.978,33.621 251.978,49.605 292.376,49.605 292.376,56.506 	"/>
	<path d="M293.033,57.163h-50.134V5.557h49.753v8.07h-40.017v12.675h33.202v7.978h-33.202v14.669h40.397V57.163z M244.215,55.849
		h47.503v-5.586h-40.398v-17.3h33.203v-5.346h-33.203V12.312h40.019V6.871h-47.123V55.849z"/>
</g>
<rect x="-264" y="-261.28" fill="none" width="841.89" height="595.28"/>
</svg>
